<svg width="107" height="32" viewBox="0 0 107 32" fill="none" xmlns="http://www.w3.org/2000/svg">
<g clip-path="url(#clip0_591_364)">
<path fill-rule="evenodd" clip-rule="evenodd" d="M65.8016 25.0124C59.6379 29.5502 50.704 31.9713 43.0121 31.9713C32.2267 31.9713 22.5172 27.9869 15.1715 21.3601C14.5944 20.839 15.1115 20.1288 15.804 20.5346C23.7314 25.1416 33.5334 27.9131 43.6584 27.9131C50.487 27.9131 57.9989 26.502 64.9059 23.5736C65.9493 23.1309 66.822 24.2561 65.8016 25.0124Z" fill="white"/>
<path fill-rule="evenodd" clip-rule="evenodd" d="M68.364 22.0841C67.5791 21.0788 63.156 21.6091 61.1707 21.8443C60.5659 21.9181 60.4736 21.3924 61.0184 21.0142C64.5411 18.5378 70.3216 19.2526 70.9957 20.0827C71.6698 20.9174 70.8203 26.7049 67.5099 29.4672C67.002 29.8915 66.5172 29.6655 66.7435 29.1029C67.4868 27.2491 69.1535 23.094 68.364 22.0841Z" fill="white"/>
<path fill-rule="evenodd" clip-rule="evenodd" d="M61.3092 3.53169V1.12444C61.3092 0.76013 61.5863 0.515717 61.9187 0.515717H72.7086C73.0549 0.515717 73.3319 0.764742 73.3319 1.12444V3.18582C73.3273 3.53169 73.0364 3.98363 72.5193 4.69842L66.9281 12.6718C69.0058 12.6211 71.1989 12.9301 73.0826 13.9908C73.5074 14.2306 73.6228 14.581 73.6551 14.9269V17.4956C73.6551 17.846 73.2673 18.2565 72.861 18.0443C69.5414 16.3058 65.1321 16.1167 61.4616 18.0628C61.0876 18.2657 60.6952 17.8599 60.6952 17.5094V15.0699C60.6952 14.6779 60.6998 14.0092 61.0922 13.4143L67.5699 4.13581H61.9325C61.5863 4.13581 61.3092 3.8914 61.3092 3.53169Z" fill="white"/>
<path fill-rule="evenodd" clip-rule="evenodd" d="M21.9493 18.5516H18.6666C18.3526 18.5286 18.1033 18.2934 18.0802 17.9936V1.16597C18.0802 0.829323 18.3618 0.561849 18.7127 0.561849H21.7738C22.0924 0.575675 22.3463 0.820097 22.3694 1.12446V3.32419H22.4294C23.2282 1.19825 24.7287 0.206757 26.7509 0.206757C28.8055 0.206757 30.089 1.19825 31.0124 3.32419C31.8066 1.19825 33.6118 0.206757 35.5463 0.206757C36.9222 0.206757 38.4273 0.773981 39.3461 2.04678C40.385 3.46253 40.1726 5.5193 40.1726 7.32243L40.168 17.9429C40.168 18.2795 39.8863 18.5516 39.5354 18.5516H36.2574C35.9295 18.5286 35.6664 18.2657 35.6664 17.9429V9.0241C35.6664 8.31392 35.731 6.54307 35.574 5.86978C35.3293 4.73994 34.5952 4.42174 33.6441 4.42174C32.85 4.42174 32.0189 4.95207 31.6819 5.80061C31.3449 6.64914 31.3772 8.0695 31.3772 9.0241V17.9429C31.3772 18.2795 31.0955 18.5516 30.7446 18.5516H27.4666C27.1342 18.5286 26.8756 18.2657 26.8756 17.9429L26.871 9.0241C26.871 7.14719 27.1803 4.38485 24.8487 4.38485C22.4894 4.38485 22.5818 7.07801 22.5818 9.0241V17.9429C22.5818 18.2795 22.3001 18.5516 21.9493 18.5516" fill="white"/>
<path fill-rule="evenodd" clip-rule="evenodd" d="M82.6213 0.206757C87.4923 0.206757 90.1286 4.38485 90.1286 9.69739C90.1286 14.8301 87.2153 18.9021 82.6213 18.9021C77.8381 18.9021 75.2341 14.724 75.2341 9.51754C75.2341 4.27878 77.8704 0.206757 82.6213 0.206757ZM82.649 3.64239C80.2297 3.64239 80.0774 6.93505 80.0774 8.98721C80.0774 11.044 80.045 15.4342 82.6213 15.4342C85.1653 15.4342 85.2854 11.8925 85.2854 9.73428C85.2854 8.31392 85.2253 6.61686 84.7959 5.27027C84.4266 4.09893 83.6925 3.64239 82.649 3.64239Z" fill="white"/>
<path fill-rule="evenodd" clip-rule="evenodd" d="M96.4446 18.5516H93.1758C92.848 18.5286 92.5848 18.2657 92.5848 17.9429L92.5802 1.11063C92.6079 0.80165 92.8803 0.561849 93.2127 0.561849H96.2553C96.5416 0.575675 96.7771 0.769371 96.8417 1.03223V3.60549H96.9017C97.8205 1.30431 99.1086 0.206757 101.376 0.206757C102.848 0.206757 104.284 0.737089 105.208 2.18974C106.066 3.53632 106.066 5.80061 106.066 7.42849V18.0213C106.03 18.3164 105.757 18.5516 105.434 18.5516H102.142C101.842 18.5286 101.593 18.3072 101.56 18.0213V8.88114C101.56 7.04112 101.773 4.34796 99.5057 4.34796C98.707 4.34796 97.9729 4.8829 97.6081 5.69454C97.1464 6.72292 97.0864 7.74669 97.0864 8.88114V17.9429C97.0818 18.2795 96.7955 18.5516 96.4446 18.5516" fill="white"/>
<path fill-rule="evenodd" clip-rule="evenodd" d="M52.7078 10.5136C52.7078 11.791 52.7401 12.8563 52.0937 13.9908C51.572 14.9131 50.7409 15.4803 49.8222 15.4803C48.5617 15.4803 47.823 14.5211 47.823 13.1053C47.823 10.3107 50.33 9.80346 52.7078 9.80346V10.5136ZM56.0182 18.5055C55.8012 18.6992 55.4872 18.713 55.2425 18.5839C54.1529 17.68 53.9544 17.2604 53.3588 16.398C51.5581 18.2334 50.2792 18.7822 47.9476 18.7822C45.1821 18.7822 43.0352 17.0805 43.0352 13.6726C43.0352 11.0117 44.4757 9.19934 46.5348 8.31392C48.317 7.52995 50.8056 7.3916 52.7078 7.17486V6.75059C52.7078 5.97123 52.7678 5.04891 52.3061 4.37563C51.909 3.77151 51.1426 3.52248 50.4639 3.52248C49.2127 3.52248 48.1 4.16349 47.8276 5.49163C47.7722 5.78677 47.5552 6.0773 47.2551 6.09113L44.074 5.74988C43.8062 5.68993 43.5061 5.47318 43.5846 5.06275C44.3141 1.20747 47.8045 0.0453491 50.9256 0.0453491C52.5231 0.0453491 54.61 0.469615 55.8704 1.67785C57.4679 3.16739 57.3156 5.15498 57.3156 7.31782V12.4274C57.3156 13.9631 57.9527 14.6364 58.5529 15.4665C58.7607 15.7616 58.8069 16.1167 58.539 16.3381C57.8696 16.8961 56.6784 17.9337 56.0228 18.5147L56.0182 18.5055" fill="white"/>
<path fill-rule="evenodd" clip-rule="evenodd" d="M9.67263 10.5138C9.67263 11.7912 9.70494 12.8565 9.05857 13.991C8.53684 14.9133 7.7104 15.4805 6.787 15.4805C5.52655 15.4805 4.79245 14.5213 4.79245 13.1055C4.79245 10.3109 7.29948 9.80364 9.67263 9.80364V10.5138ZM12.983 18.5057C12.766 18.6994 12.4521 18.7132 12.2074 18.5841C11.1177 17.6802 10.9238 17.2606 10.3236 16.3982C8.52299 18.2336 7.2487 18.7824 4.91249 18.7824C2.15152 18.7824 0 17.0807 0 13.6728C0 11.0119 1.44512 9.19952 3.49969 8.3141C5.28185 7.53013 7.77042 7.39178 9.67263 7.17504V6.75077C9.67263 5.97141 9.73265 5.0491 9.27556 4.37581C8.87388 3.77169 8.10746 3.52267 7.43338 3.52267C6.18217 3.52267 5.06485 4.16367 4.79245 5.49181C4.73705 5.78695 4.52005 6.07748 4.22456 6.09132L1.03883 5.75006C0.771039 5.69011 0.475551 5.47336 0.549423 5.06294C1.28353 1.20765 4.76936 0.0455322 7.89046 0.0455322C9.48794 0.0455322 11.5748 0.469799 12.8353 1.67803C14.4328 3.16757 14.2804 5.15516 14.2804 7.318V12.4276C14.2804 13.9633 14.9175 14.6366 15.5178 15.4667C15.7301 15.7618 15.7763 16.1169 15.5085 16.3382C14.8391 16.8963 13.6479 17.9339 12.9922 18.5149L12.983 18.5057" fill="white"/>
</g>
<defs>
<clipPath id="clip0_591_364">
<rect width="106.066" height="31.926" fill="white" transform="translate(0 0.0453186)"/>
</clipPath>
</defs>
</svg>
