<svg width="82" height="47" viewBox="0 0 82 47" fill="none" xmlns="http://www.w3.org/2000/svg">
<g clip-path="url(#clip0_591_333)">
<path d="M65.658 34.1129H82V47H65.5613L61.5 43.2097V37.9032L65.658 34.1129Z" fill="white"/>
<path d="M14.6981 10.1391L14.9882 10.0443C15.1816 9.94959 15.4717 9.76007 15.7618 9.57056C16.0519 9.38104 16.342 9.09677 16.6321 8.81249C16.9222 8.52822 17.1156 8.14919 17.4057 7.58064C17.5991 7.10685 17.6958 6.5383 17.6958 5.96975C17.6958 4.54838 17.0189 3.22177 15.6651 2.17943C14.3113 1.13709 12.4741 0.568542 10.1533 0.568542H0V20.8468H10.7335C13.441 20.8468 19.1462 20.373 19.1462 15.0665C19.1462 10.9919 14.7948 10.1391 14.6981 10.1391ZM6.67217 5.30645H9.18632C9.66981 5.30645 10.0566 5.4012 10.4434 5.78024C10.7335 6.06451 10.9269 6.44354 10.9269 6.82257C10.9269 7.20161 10.7335 7.58064 10.4434 7.86491C10.0566 8.14919 9.66981 8.3387 9.18632 8.3387H6.67217V5.30645ZM11.3137 15.6351C10.9269 16.0141 10.4434 16.2036 9.86321 16.2036H6.67217V12.6028H9.86321C10.4434 12.6028 10.9269 12.7923 11.3137 13.1714C11.7005 13.5504 11.8939 13.9294 11.8939 14.498C11.8939 14.877 11.7005 15.256 11.3137 15.6351Z" fill="white"/>
<path d="M20.0165 32.5968L20.3066 32.502C20.5 32.4073 20.7901 32.2177 21.0801 32.0282C21.3702 31.8387 21.6603 31.5544 21.9504 31.2702C22.2405 30.9859 22.4339 30.6069 22.724 30.0383C22.9174 29.5645 23.0141 28.996 23.0141 28.4274C23.0141 27.0061 22.3372 25.6794 20.9835 24.6371C19.6297 23.5948 17.7924 23.0262 15.4717 23.0262H5.31836V43.3044H15.9552C18.6627 43.3044 24.3679 42.8306 24.3679 37.5242C24.4646 33.4496 20.1132 32.6915 20.0165 32.5968ZM12.0872 27.7641H14.5047C14.9882 27.7641 15.375 27.9536 15.7618 28.2379C16.0518 28.5222 16.2452 28.9012 16.2452 29.2802C16.2452 29.6593 16.0518 30.0383 15.7618 30.3226C15.4717 30.6069 15.0849 30.7964 14.5047 30.7964H12.0872V27.7641ZM16.632 38.0927C16.2452 38.4718 15.7618 38.6613 15.1816 38.6613H12.0872V35.0605H15.1816C15.7618 35.0605 16.2452 35.25 16.632 35.629C17.0188 36.0081 17.2122 36.3871 17.2122 36.9557C17.2122 37.3347 17.0188 37.7137 16.632 38.0927Z" fill="white"/>
<path d="M36.2617 15.9193H26.3018V12.7923H34.4245V8.14919H26.3018V5.49596H36.2617V0.568542H19.533V20.8468H36.2617V15.9193Z" fill="white"/>
<path d="M53.3773 0.568542V5.49596H58.8891V20.8468H65.5613V5.49596H70.9764V0.568542H53.3773Z" fill="white"/>
<path d="M45.8349 15.6351C45.4481 15.9194 44.9646 16.1089 44.2877 16.1089C43.6109 16.1089 42.934 15.9194 42.2571 15.5403C41.5802 15.1613 41.0967 14.877 40.8066 14.6875C40.7099 14.5927 40.5165 14.498 40.4198 14.4032L36.4552 18.0988L36.7453 18.3831C36.9387 18.6673 37.3255 18.9516 37.809 19.2359C38.2925 19.6149 38.8727 19.8992 39.5495 20.2782C40.2264 20.6573 41 20.9415 42.0637 21.131C43.0307 21.4153 44.0944 21.5101 45.158 21.5101C47.7689 21.5101 49.8962 20.8468 51.4434 19.5202C52.9906 18.1936 53.7642 16.5827 53.7642 14.6875C53.7642 13.6452 53.5708 12.6028 53.0873 11.8448C52.6038 10.9919 52.1203 10.4234 51.4434 9.9496C50.7665 9.57057 50.0896 9.19153 49.316 8.8125C48.6392 8.52823 47.9623 8.24395 47.2854 8.14919C47.1887 8.14919 47.1887 8.14919 47.092 8.14919C46.4151 7.95968 45.8349 7.77016 45.4481 7.48589C44.9646 7.20161 44.7712 7.0121 44.7712 6.63306C44.7712 6.25403 44.9646 5.96976 45.2547 5.68548C45.5448 5.40121 46.0283 5.30645 46.6085 5.30645C47.9623 5.30645 48.8326 5.875 49.2194 6.34879L53.184 2.65323L53.0873 2.55847C52.8939 2.36895 52.6038 2.08468 52.217 1.8004C51.8302 1.51613 51.3467 1.23185 50.7665 0.947581C50.1863 0.663306 49.5094 0.379032 48.5425 0.189516C47.5755 0.0947581 46.6085 0 45.6415 0C43.1274 0 41.1934 0.663307 39.6462 1.89516C38.0991 3.22177 37.3255 4.7379 37.3255 6.44355C37.3255 7.39113 37.5189 8.24395 37.809 8.90726C38.0991 9.66532 38.5826 10.2339 39.0661 10.7077C39.5495 11.1815 40.1297 11.5605 40.8066 11.8448C41.3868 12.129 41.8703 12.3185 42.4505 12.5081C42.5472 12.5081 42.6439 12.6028 42.7406 12.6028C43.4175 12.7923 43.9977 12.9819 44.4811 13.1714C44.9646 13.3609 45.4481 13.5504 45.7382 13.7399C46.0283 13.9294 46.2217 14.2137 46.2217 14.4032C46.4151 14.9718 46.2217 15.3508 45.8349 15.6351Z" fill="white"/>
<path d="M36.2617 35.0605C36.2617 36.3871 35.1981 37.5242 33.7476 37.5242C32.3938 37.5242 31.2334 36.4819 31.2334 35.0605V23.0262H24.5613V34.7762C24.5613 39.6089 28.5259 43.5887 33.5542 43.5887H33.941C38.8726 43.5887 42.9339 39.7036 42.9339 34.7762V23.0262H36.2617V35.0605Z" fill="white"/>
<path d="M54.3444 29.9436L49.993 23.0262H43.3208L51.0566 36.1028V43.3044H57.7288V36.1028L65.4647 23.0262H58.7925L54.3444 29.9436Z" fill="white"/>
<path d="M64.7878 40.5565C64.7878 41.0303 64.401 41.3145 64.0142 41.3145C63.6274 41.3145 63.2406 40.9355 63.2406 40.5565C63.2406 40.0827 63.6274 39.7984 64.0142 39.7984C64.401 39.7984 64.7878 40.0827 64.7878 40.5565Z" fill="white"/>
<path d="M65.6581 28.9012H65.1746V28.7117H66.3349V28.9012H65.8514V30.3226H65.6581V28.9012ZM66.625 28.7117H66.9151L67.3986 29.9436L67.8821 28.7117H68.1722V30.2278H67.9788V28.9012L67.3986 30.2278H67.3019L66.7217 28.9012V30.2278H66.5283V28.7117H66.625Z" fill="white"/>
</g>
<defs>
<clipPath id="clip0_591_333">
<rect width="82" height="47" fill="white"/>
</clipPath>
</defs>
</svg>
