<svg width="104" height="33" viewBox="0 0 104 33" fill="none" xmlns="http://www.w3.org/2000/svg">
<path d="M36.384 24.216C34.752 24.216 33.32 23.864 32.088 23.16C30.872 22.456 29.936 21.448 29.28 20.136C28.624 18.824 28.296 17.288 28.296 15.528C28.296 13.768 28.624 12.24 29.28 10.944C29.936 9.632 30.872 8.624 32.088 7.92C33.32 7.216 34.752 6.864 36.384 6.864C37.44 6.864 38.432 7.024 39.36 7.344C40.288 7.648 41.112 8.096 41.832 8.688C42.04 8.848 42.184 9.016 42.264 9.192C42.344 9.368 42.384 9.584 42.384 9.84C42.384 10.192 42.288 10.488 42.096 10.728C41.904 10.968 41.672 11.088 41.4 11.088C41.08 11.088 40.752 10.976 40.416 10.752C39.728 10.24 39.088 9.888 38.496 9.696C37.904 9.488 37.248 9.384 36.528 9.384C34.864 9.384 33.6 9.904 32.736 10.944C31.888 11.984 31.464 13.512 31.464 15.528C31.464 17.56 31.888 19.096 32.736 20.136C33.6 21.176 34.864 21.696 36.528 21.696C37.216 21.696 37.848 21.592 38.424 21.384C39.016 21.176 39.68 20.824 40.416 20.328C40.576 20.232 40.736 20.152 40.896 20.088C41.056 20.024 41.224 19.992 41.4 19.992C41.672 19.992 41.904 20.112 42.096 20.352C42.288 20.592 42.384 20.888 42.384 21.24C42.384 21.48 42.344 21.696 42.264 21.888C42.184 22.064 42.04 22.232 41.832 22.392C41.112 22.984 40.288 23.44 39.36 23.76C38.432 24.064 37.44 24.216 36.384 24.216ZM49.9433 24.192C48.7433 24.192 47.6873 23.944 46.7753 23.448C45.8793 22.952 45.1833 22.24 44.6873 21.312C44.1913 20.384 43.9433 19.304 43.9433 18.072C43.9433 16.84 44.1913 15.768 44.6873 14.856C45.1833 13.928 45.8793 13.216 46.7753 12.72C47.6873 12.224 48.7433 11.976 49.9433 11.976C51.1433 11.976 52.1913 12.224 53.0873 12.72C53.9993 13.216 54.6953 13.928 55.1753 14.856C55.6713 15.768 55.9193 16.84 55.9193 18.072C55.9193 19.304 55.6713 20.384 55.1753 21.312C54.6953 22.24 53.9993 22.952 53.0873 23.448C52.1913 23.944 51.1433 24.192 49.9433 24.192ZM49.9193 21.864C50.8953 21.864 51.6393 21.544 52.1513 20.904C52.6633 20.264 52.9193 19.32 52.9193 18.072C52.9193 16.84 52.6633 15.904 52.1513 15.264C51.6393 14.608 50.9033 14.28 49.9433 14.28C48.9833 14.28 48.2393 14.608 47.7113 15.264C47.1993 15.904 46.9433 16.84 46.9433 18.072C46.9433 19.32 47.1993 20.264 47.7113 20.904C48.2233 21.544 48.9593 21.864 49.9193 21.864ZM67.6599 12.024C68.1239 12.024 68.4919 12.152 68.7639 12.408C69.0359 12.664 69.1719 13.008 69.1719 13.44V22.752C69.1719 23.168 69.0279 23.504 68.7399 23.76C68.4679 24.016 68.1079 24.144 67.6599 24.144C67.2279 24.144 66.8839 24.024 66.6279 23.784C66.3719 23.544 66.2439 23.216 66.2439 22.8V22.2C65.8759 22.84 65.3799 23.336 64.7559 23.688C64.1319 24.024 63.4279 24.192 62.6439 24.192C59.7639 24.192 58.3239 22.576 58.3239 19.344V13.44C58.3239 13.008 58.4599 12.664 58.7319 12.408C59.0039 12.152 59.3639 12.024 59.8119 12.024C60.2759 12.024 60.6439 12.152 60.9159 12.408C61.1879 12.664 61.3239 13.008 61.3239 13.44V19.368C61.3239 20.2 61.4919 20.816 61.8279 21.216C62.1639 21.616 62.6919 21.816 63.4119 21.816C64.2439 21.816 64.9079 21.544 65.4039 21C65.9159 20.44 66.1719 19.704 66.1719 18.792V13.44C66.1719 13.008 66.3079 12.664 66.5799 12.408C66.8519 12.152 67.2119 12.024 67.6599 12.024ZM79.0384 11.976C80.0464 11.976 80.9424 12.232 81.7264 12.744C82.5264 13.256 83.1424 13.984 83.5744 14.928C84.0224 15.856 84.2464 16.928 84.2464 18.144C84.2464 19.36 84.0224 20.424 83.5744 21.336C83.1424 22.248 82.5344 22.952 81.7504 23.448C80.9664 23.944 80.0624 24.192 79.0384 24.192C78.2064 24.192 77.4624 24.016 76.8064 23.664C76.1504 23.312 75.6464 22.824 75.2944 22.2V27.096C75.2944 27.512 75.1584 27.84 74.8864 28.08C74.6144 28.32 74.2544 28.44 73.8064 28.44C73.3584 28.44 72.9904 28.312 72.7024 28.056C72.4304 27.8 72.2944 27.464 72.2944 27.048V13.44C72.2944 13.008 72.4224 12.664 72.6784 12.408C72.9504 12.152 73.3104 12.024 73.7584 12.024C74.2064 12.024 74.5664 12.152 74.8384 12.408C75.1104 12.664 75.2464 13.008 75.2464 13.44V14.04C75.5984 13.384 76.1024 12.88 76.7584 12.528C77.4304 12.16 78.1904 11.976 79.0384 11.976ZM78.2464 21.864C79.1904 21.864 79.9264 21.544 80.4544 20.904C80.9824 20.248 81.2464 19.328 81.2464 18.144C81.2464 16.928 80.9824 15.984 80.4544 15.312C79.9264 14.64 79.1904 14.304 78.2464 14.304C77.2864 14.304 76.5424 14.632 76.0144 15.288C75.5024 15.944 75.2464 16.88 75.2464 18.096C75.2464 19.296 75.5024 20.224 76.0144 20.88C76.5424 21.536 77.2864 21.864 78.2464 21.864ZM88.1964 24.144C87.7644 24.144 87.4044 24.024 87.1164 23.784C86.8444 23.528 86.7084 23.168 86.7084 22.704V8.376C86.7084 7.912 86.8444 7.56 87.1164 7.32C87.4044 7.08 87.7644 6.96 88.1964 6.96C88.6284 6.96 88.9884 7.08 89.2764 7.32C89.5644 7.56 89.7084 7.912 89.7084 8.376V22.704C89.7084 23.168 89.5644 23.528 89.2764 23.784C88.9884 24.024 88.6284 24.144 88.1964 24.144ZM100.986 12.888C101.114 12.6 101.282 12.392 101.49 12.264C101.714 12.12 101.954 12.048 102.21 12.048C102.578 12.048 102.906 12.176 103.194 12.432C103.498 12.672 103.65 12.976 103.65 13.344C103.65 13.52 103.602 13.704 103.506 13.896L96.9542 27.624C96.6822 28.168 96.2582 28.44 95.6822 28.44C95.3142 28.44 94.9862 28.32 94.6982 28.08C94.4262 27.856 94.2902 27.568 94.2902 27.216C94.2902 27.04 94.3382 26.84 94.4342 26.616L96.0662 23.184L91.6022 13.896C91.5222 13.736 91.4822 13.552 91.4822 13.344C91.4822 12.976 91.6342 12.664 91.9382 12.408C92.2582 12.152 92.6182 12.024 93.0182 12.024C93.2902 12.024 93.5382 12.096 93.7622 12.24C93.9862 12.368 94.1622 12.576 94.2902 12.864L97.6502 20.28L100.986 12.888Z" fill="black"/>
<g clip-path="url(#clip0_590_153)">
<path d="M11.1912 24.375L2.625 15.8087V17.5587C2.625 18.0225 2.80875 18.4687 3.14125 18.7925L9.9575 25.6087C10.64 26.2912 11.7513 26.2912 12.4338 25.6087L17.8675 20.175C18.55 19.4925 18.55 18.3812 17.8675 17.6987L11.1912 24.375Z" fill="black"/>
<path d="M9.9575 21.2337C10.64 21.9162 11.7513 21.9162 12.4338 21.2337L17.8675 15.8C18.55 15.1175 18.55 14.0063 17.8675 13.3238L11.0513 6.5075C10.7189 6.18314 10.2732 6.00109 9.80875 6H4.375C3.4125 6 2.625 6.7875 2.625 7.75V13.1838C2.625 13.6475 2.80875 14.0938 3.14125 14.4175L9.9575 21.2337ZM6.34375 8.625C6.63383 8.625 6.91203 8.74023 7.11715 8.94535C7.32227 9.15047 7.4375 9.42867 7.4375 9.71875C7.4375 10.0088 7.32227 10.287 7.11715 10.4921C6.91203 10.6973 6.63383 10.8125 6.34375 10.8125C6.05367 10.8125 5.77547 10.6973 5.57035 10.4921C5.36523 10.287 5.25 10.0088 5.25 9.71875C5.25 9.42867 5.36523 9.15047 5.57035 8.94535C5.77547 8.74023 6.05367 8.625 6.34375 8.625Z" fill="black"/>
</g>
<defs>
<clipPath id="clip0_590_153">
<rect width="21" height="21" fill="white" transform="translate(0 6)"/>
</clipPath>
</defs>
</svg>
