<svg width="30" height="30" viewBox="0 0 30 30" fill="none" xmlns="http://www.w3.org/2000/svg">
<g clip-path="url(#clip0_591_551)">
<path d="M30 15C30 6.71569 23.2843 -2.86102e-05 15 -2.86102e-05C6.71572 -2.86102e-05 0 6.71569 0 15C0 22.4869 5.48528 28.6925 12.6562 29.8177V19.3359H8.84766V15H12.6562V11.6953C12.6562 7.93591 14.8956 5.85935 18.322 5.85935C19.9631 5.85935 21.6797 6.15232 21.6797 6.15232V9.84372H19.7882C17.9249 9.84372 17.3438 11 17.3438 12.1862V15H21.5039L20.8389 19.3359H17.3438V29.8177C24.5147 28.6925 30 22.4869 30 15Z" fill="black"/>
<path d="M20.8389 19.3359L21.5039 15H17.3438V12.1862C17.3438 11 17.9249 9.84375 19.7882 9.84375H21.6797V6.15234C21.6797 6.15234 19.9631 5.85938 18.322 5.85938C14.8956 5.85938 12.6563 7.93594 12.6563 11.6953V15H8.84766V19.3359H12.6563V29.8178C13.4199 29.9376 14.2027 30 15 30C15.7973 30 16.5801 29.9376 17.3438 29.8178V19.3359H20.8389Z" fill="white"/>
</g>
<defs>
<clipPath id="clip0_591_551">
<rect width="30" height="30" fill="white"/>
</clipPath>
</defs>
</svg>
