<svg width="150" height="43" viewBox="0 0 150 43" fill="none" xmlns="http://www.w3.org/2000/svg">
<g clip-path="url(#clip0_591_345)">
<path d="M51.8933 23.9114C50.6161 23.2031 49.9439 22.6298 49.9439 21.8204C49.9439 20.7749 50.8514 20.1341 52.2966 20.1341C53.9771 20.1341 55.4559 20.8424 55.4559 20.8424L56.6323 17.2337C56.6323 17.2337 55.5568 16.3906 52.3638 16.3906C47.9274 16.3906 44.8353 18.9537 44.8353 22.5286C44.8353 24.5522 46.2805 26.1035 48.1962 27.2165C49.7423 28.0933 50.28 28.7341 50.28 29.6447C50.28 30.6228 49.507 31.3984 48.0618 31.3984C45.9108 31.3984 43.8942 30.2855 43.8942 30.2855L42.6506 33.8941C42.6506 33.8941 44.5328 35.142 47.6585 35.142C52.2294 35.142 55.4895 32.8824 55.4895 28.8353C55.5568 26.6094 53.8763 25.058 51.8933 23.9114Z" fill="white"/>
<path d="M70.1098 16.3231C67.8579 16.3231 66.1102 17.4023 64.7322 19.0212L64.665 18.9874L66.6144 8.73489H61.5057L56.5651 34.8047H61.6401L63.3206 25.9012C63.9928 22.5286 65.7069 20.4714 67.3202 20.4714C68.4629 20.4714 68.8998 21.2471 68.8998 22.36C68.8998 23.0682 68.8326 23.9114 68.6645 24.6196L66.7488 34.8384H71.8239L73.8068 24.3161C74.0421 23.2031 74.1765 21.8878 74.1765 20.9772C74.2438 18.0431 72.7649 16.3231 70.1098 16.3231Z" fill="white"/>
<path d="M85.7383 16.3231C79.6213 16.3231 75.5546 21.8541 75.5546 28.0259C75.5546 31.9717 77.9745 35.1757 82.5454 35.1757C88.5615 35.1757 92.5947 29.7796 92.5947 23.4729C92.6283 19.7968 90.5109 16.3231 85.7383 16.3231ZM83.2512 31.2298C81.5035 31.2298 80.7977 29.7459 80.7977 27.891C80.7977 24.9568 82.3101 20.2016 85.0661 20.2016C86.881 20.2016 87.4524 21.7529 87.4524 23.2706C87.4524 26.4408 85.94 31.2298 83.2512 31.2298Z" fill="white"/>
<path d="M105.635 16.3231C102.207 16.3231 100.258 19.3584 100.258 19.3584H100.19L100.493 16.6266H95.9893C95.754 18.4816 95.3507 21.2808 94.9474 23.4055L91.4183 42.0219H96.4934L97.905 34.4674H98.0058C98.0058 34.4674 99.0477 35.1419 100.997 35.1419C106.98 35.1419 110.878 29.0039 110.878 22.7984C110.878 19.3921 109.366 16.3231 105.635 16.3231ZM100.795 31.331C99.4847 31.331 98.7116 30.589 98.7116 30.589L99.5519 25.8337C100.157 22.6635 101.804 20.5388 103.551 20.5388C105.097 20.5388 105.568 21.989 105.568 23.338C105.568 26.6094 103.619 31.331 100.795 31.331Z" fill="white"/>
<path d="M118.138 9.0047C116.525 9.0047 115.214 10.2863 115.214 11.9725C115.214 13.4902 116.155 14.5357 117.6 14.5357H117.668C119.247 14.5357 120.625 13.4565 120.659 11.5678C120.692 10.0502 119.684 9.0047 118.138 9.0047Z" fill="white"/>
<path d="M111.013 34.8047H116.121L119.583 16.7278H114.441L111.013 34.8047Z" fill="white"/>
<path d="M132.489 16.6941H128.96L129.128 15.851C129.431 14.0973 130.439 12.5459 132.153 12.5459C133.061 12.5459 133.767 12.8157 133.767 12.8157L134.775 8.83608C134.775 8.83608 133.901 8.39764 132.019 8.39764C130.204 8.39764 128.423 8.90353 127.045 10.0839C125.297 11.5678 124.49 13.6925 124.087 15.851L123.952 16.6941H121.6L120.86 20.5388H123.213L120.524 34.8047H125.599L128.288 20.5388H131.784L132.489 16.6941Z" fill="white"/>
<path d="M144.723 16.7278C144.723 16.7278 141.53 24.7545 140.119 29.1388H140.051C139.951 27.7224 138.808 16.7278 138.808 16.7278H133.464L136.522 33.3208C136.59 33.6918 136.556 33.9278 136.422 34.1639C135.817 35.3106 134.842 36.4235 133.666 37.2329C132.725 37.9412 131.649 38.3796 130.809 38.6831L132.22 43C133.262 42.7639 135.38 41.9208 137.195 40.2345C139.514 38.0424 141.665 34.7035 143.849 30.1169L150.067 16.7278H144.723Z" fill="white"/>
<path d="M25.14 4.99137C25.14 4.99137 24.6695 5.12627 23.8965 5.36235C23.762 4.92392 23.5604 4.41804 23.2915 3.87843C22.4177 2.19215 21.1069 1.28157 19.5608 1.28157C19.46 1.28157 19.3592 1.28157 19.2247 1.31529C19.1911 1.24784 19.1239 1.21411 19.0903 1.14666C18.4181 0.404703 17.5443 0.0674478 16.5024 0.101173C14.4858 0.168624 12.4692 1.61882 10.8559 4.21568C9.7132 6.03686 8.83935 8.33019 8.60408 10.1176C6.28501 10.8259 4.67175 11.3318 4.63814 11.3655C3.4618 11.7365 3.42819 11.7702 3.29375 12.8831C3.19292 13.7263 0.10083 37.469 0.10083 37.469L25.5097 41.8871V4.95764C25.3081 4.95764 25.2073 4.99137 25.14 4.99137ZM19.2583 6.81255C17.914 7.21725 16.4351 7.68941 14.9899 8.12784C15.3932 6.54274 16.1999 4.95764 17.1409 3.91215C17.5106 3.54117 18.0148 3.10274 18.5862 2.83294C19.1575 4.04706 19.292 5.6996 19.2583 6.81255ZM16.5024 1.48392C16.9729 1.48392 17.3762 1.5851 17.7123 1.78745C17.1745 2.05725 16.6368 2.49568 16.1326 3.00157C14.8555 4.38431 13.8808 6.54274 13.4775 8.6C12.2675 8.97098 11.0576 9.34196 9.94847 9.67921C10.6879 6.44157 13.4103 1.55137 16.5024 1.48392ZM12.6036 20.0329C12.7381 22.1914 18.4181 22.6635 18.7542 27.7561C18.9895 31.7694 16.6368 34.5012 13.2422 34.7035C9.14184 34.9733 6.88999 32.5451 6.88999 32.5451L7.76384 28.8353C7.76384 28.8353 10.0157 30.5553 11.8306 30.4204C13.0069 30.3529 13.4439 29.3749 13.4103 28.7004C13.2422 25.8674 8.60408 26.0361 8.30159 21.382C8.03272 17.4698 10.5871 13.5239 16.2335 13.1529C18.4181 13.018 19.5272 13.5576 19.5272 13.5576L18.2501 18.4141C18.2501 18.4141 16.8048 17.7396 15.0907 17.8745C12.6036 18.0431 12.57 19.6282 12.6036 20.0329ZM20.6027 6.40784C20.6027 5.39608 20.4683 3.94588 19.9978 2.73176C21.5438 3.03529 22.2832 4.75529 22.6193 5.80078C22.0143 5.96941 21.3421 6.17176 20.6027 6.40784Z" fill="white"/>
<path d="M26.2827 41.8196L36.8362 39.189C36.8362 39.189 32.2988 8.39763 32.2652 8.19528C32.2316 7.99292 32.0636 7.85802 31.8955 7.85802C31.7275 7.85802 28.7698 7.79057 28.7698 7.79057C28.7698 7.79057 26.9549 6.03684 26.2827 5.36234V41.8196Z" fill="white"/>
</g>
<defs>
<clipPath id="clip0_591_345">
<rect width="150" height="43" fill="white"/>
</clipPath>
</defs>
</svg>
