<svg width="30" height="30" viewBox="0 0 30 30" fill="none" xmlns="http://www.w3.org/2000/svg">
<g clip-path="url(#clip0_591_556)">
<path d="M23.7392 13.3235C18.9769 10.4953 11.1217 10.2353 6.5755 11.615C5.84543 11.8366 5.07338 11.4243 4.85224 10.6945C4.63096 9.96393 5.04265 9.19245 5.77327 8.97051C10.992 7.38645 19.6672 7.69236 25.1496 10.9468C25.8063 11.3366 26.0217 12.1847 25.6325 12.8402C25.2429 13.4968 24.3942 13.7133 23.7392 13.3235ZM23.5832 17.5124C23.2491 18.0545 22.5402 18.2246 21.9988 17.8917C18.0285 15.4511 11.9744 14.7442 7.27724 16.17C6.66812 16.3541 6.02474 16.0106 5.83971 15.4026C5.65618 14.7935 5.99979 14.1513 6.60782 13.9661C11.9736 12.3378 18.6442 13.1265 23.2043 15.9288C23.7457 16.2623 23.9161 16.9715 23.5832 17.5124ZM21.7754 21.5352C21.5099 21.9707 20.9431 22.107 20.5093 21.8417C17.04 19.7213 12.6732 19.2425 7.53063 20.4171C7.03507 20.5307 6.54117 20.2202 6.42816 19.7246C6.31465 19.2293 6.62402 18.7353 7.12067 18.6222C12.7484 17.3357 17.5758 17.8894 21.4699 20.2689C21.904 20.5341 22.0408 21.1012 21.7754 21.5352ZM15 0.226143C6.84068 0.226143 0.226074 6.84061 0.226074 14.9998C0.226074 23.1599 6.84068 29.7738 15 29.7738C23.1594 29.7738 29.7737 23.1599 29.7737 14.9998C29.7737 6.84061 23.1594 0.226143 15 0.226143Z" fill="black"/>
</g>
<defs>
<clipPath id="clip0_591_556">
<rect width="30" height="30" fill="white"/>
</clipPath>
</defs>
</svg>
