<svg width="43" height="43" viewBox="0 0 43 43" fill="none" xmlns="http://www.w3.org/2000/svg">
    <path d="M15 30C23.2843 30 30 23.2843 30 15C30 6.71573 23.2843 0 15 0C6.71573 0 0 6.71573 0 15C0 23.2843 6.71573 30 15 30Z" fill="black"/>
    <path d="M12.255 22.9125C18.9075 22.9125 22.545 17.4 22.545 12.6225C22.545 12.465 22.545 12.3075 22.5375 12.1575C23.2425 11.6475 23.8575 11.01 24.345 10.2825C23.7 10.5675 23.0025 10.7625 22.2675 10.8525C23.0175 10.4025 23.5875 9.69752 23.8575 8.85002C23.16 9.26252 22.3875 9.56252 21.5625 9.72752C20.9025 9.02252 19.965 8.58752 18.9225 8.58752C16.9275 8.58752 15.3075 10.2075 15.3075 12.2025C15.3075 12.4875 15.3375 12.765 15.405 13.0275C12.3975 12.8775 9.73504 11.4375 7.95004 9.24752C7.64254 9.78002 7.46254 10.4025 7.46254 11.0625C7.46254 12.315 8.10004 13.425 9.07504 14.07C8.48254 14.055 7.92754 13.89 7.44004 13.62C7.44004 13.635 7.44004 13.65 7.44004 13.665C7.44004 15.42 8.68504 16.875 10.3425 17.2125C10.0425 17.295 9.72004 17.34 9.39004 17.34C9.15754 17.34 8.93254 17.3175 8.70754 17.2725C9.16504 18.7125 10.5 19.755 12.0825 19.785C10.845 20.7525 9.28504 21.33 7.59004 21.33C7.29754 21.33 7.01254 21.315 6.72754 21.2775C8.31004 22.3125 10.215 22.9125 12.255 22.9125Z" fill="white"/>
</svg>
