<svg width="32" height="33" viewBox="0 0 32 33" fill="none" xmlns="http://www.w3.org/2000/svg">
    <path d="M28.3426 15.116C28.9746 15.9426 28.9746 17.0586 28.3426 17.884C26.3519 20.4826 21.5759 25.8333 15.9999 25.8333C10.4239 25.8333 5.64793 20.4826 3.65727 17.884C3.34978 17.4881 3.18286 17.0012 3.18286 16.5C3.18286 15.9987 3.34978 15.5118 3.65727 15.116C5.64793 12.5173 10.4239 7.16663 15.9999 7.16663C21.5759 7.16663 26.3519 12.5173 28.3426 15.116V15.116Z" stroke="black" stroke-width="2" stroke-linecap="round" stroke-linejoin="round"/>
    <path d="M16 20.5C18.2091 20.5 20 18.7091 20 16.5C20 14.2909 18.2091 12.5 16 12.5C13.7909 12.5 12 14.2909 12 16.5C12 18.7091 13.7909 20.5 16 20.5Z" stroke="black" stroke-width="2" stroke-linecap="round" stroke-linejoin="round"/>
</svg>
