<svg width="181" height="44" viewBox="0 0 181 44" fill="none" xmlns="http://www.w3.org/2000/svg">
<g clip-path="url(#clip0_591_359)">
<path fill-rule="evenodd" clip-rule="evenodd" d="M100.568 27.9739C100.568 28.3185 100.511 28.7206 100.454 29.0078C99.939 30.5013 98.5661 31.4778 96.9643 31.4778C95.5341 31.4778 94.4472 30.6736 94.4472 28.9504C94.4472 26.3081 97.3075 25.6188 100.625 25.6188V27.9739H100.568ZM105.717 23.3786C105.717 19.0705 103.886 15.2219 97.6508 15.2219C94.4472 15.2219 91.8729 16.141 90.5 16.9452L91.5297 20.4491C93.1315 19.53 94.9049 19.0131 96.7355 18.9556C99.939 18.9556 100.454 20.7363 100.454 21.8851V22.1723C93.5319 22.1723 89.1843 24.5849 89.1843 29.4674C89.1843 32.4543 91.4153 35.2689 95.3053 35.2689C97.6508 35.2689 99.653 34.3499 100.854 32.799H100.969C100.969 32.799 101.77 36.1305 106.117 34.8668C105.888 33.4882 105.774 31.9948 105.774 30.2715L105.717 23.3786ZM0 9.30548L5.26296 30.9034C6.12105 34.4073 7.60841 35.7285 11.9561 34.8668L14.7592 23.3786C15.4456 20.5065 15.9605 18.4961 16.4181 15.5666H16.4753C16.8186 18.4961 17.2762 20.5065 17.8483 23.3786L19.5645 31.3629C20.1937 34.1201 21.7955 35.8433 26.086 34.8668L32.7791 9.36292H27.3445L25.0563 20.3916C24.427 23.6084 23.8549 26.1358 23.4545 29.0653C23.054 26.1358 22.5392 23.7232 21.9099 20.6214L19.5645 9.36292H13.9011L11.3268 20.3342C10.6403 23.6658 9.95386 26.3655 9.49621 29.1802H9.439C8.98135 26.5379 8.40929 23.1488 7.78003 19.9321L5.72061 9.30548H0ZM42.7329 27.9739C42.7329 28.3185 42.7329 28.7206 42.6185 29.0078C42.1037 30.5013 40.7307 31.4778 39.129 31.4778C37.6988 31.4778 36.6119 30.6736 36.6119 28.9504C36.6119 26.3081 39.4722 25.6188 42.7901 25.6188V27.9739H42.7329ZM47.9387 23.3786C47.9387 19.0705 46.1081 15.2219 39.8726 15.2219C36.6691 15.2219 34.0948 16.141 32.7219 16.9452L33.7516 20.4491C35.3534 19.53 37.1267 19.0131 38.9573 18.9556C42.1609 18.9556 42.6757 20.7363 42.6757 21.8851V22.1723C35.7538 22.1723 31.4061 24.5849 31.4061 29.4674C31.4061 32.4543 33.6372 35.2689 37.5272 35.2689C39.8726 35.2689 41.8748 34.3499 43.0762 32.799H43.1906C43.1906 32.799 43.9915 36.1305 48.3391 34.8668C48.1103 33.4882 47.9959 31.9948 47.9959 30.2715L47.9387 23.3786ZM55.8903 29.4099V9.30548H50.7418V34.8094H55.8903V29.4099ZM121.563 9.36292V28.1462C121.563 30.7311 122.021 32.5692 123.107 33.6606C124.023 34.6371 125.51 35.2689 127.284 35.2689C128.828 35.2689 130.315 34.9817 131.002 34.6945L130.945 30.6162C130.43 30.7885 129.801 30.846 129 30.846C127.226 30.846 126.654 29.7546 126.654 27.3995V20.2768H131.174V15.3943H126.654V9.30548L121.563 9.36292ZM108.234 15.6815V34.8668H113.554V25.0444C113.554 24.5274 113.611 24.0679 113.668 23.6084C114.069 21.5405 115.613 20.2193 117.902 20.2193C118.531 20.2193 118.931 20.2768 119.446 20.3342V15.2794C119.046 15.2219 118.645 15.1645 118.302 15.1645C116.3 15.1645 114.069 16.4282 113.096 19.2428H112.982V15.624L108.234 15.6815ZM58.9223 15.6815V34.8668H64.0708V23.6084C64.0708 23.0914 64.128 22.517 64.2996 22.0574C64.7001 20.9086 65.787 19.5875 67.446 19.5875C69.5626 19.5875 70.5351 21.3681 70.5351 23.8956V34.8094H75.7408V23.436C75.7408 22.9191 75.798 22.2872 75.9697 21.8851C76.3701 20.5065 77.6858 19.53 79.116 19.53C81.2326 19.53 82.2623 21.2533 82.2623 24.2976V34.8094H87.4681V23.5509C87.4681 17.6345 84.4362 15.2219 81.061 15.2219C79.5164 15.2219 78.3723 15.624 77.2854 16.2559C76.3701 16.8303 75.5692 17.6345 74.8827 18.6684H74.8255C73.9675 16.5431 71.8508 15.1645 69.5626 15.2219C67.2743 15.107 65.1005 16.2559 64.0136 18.2663H63.9564V15.6815H58.9223Z" fill="white"/>
<path fill-rule="evenodd" clip-rule="evenodd" d="M159.033 14.8198C160.063 14.8198 160.921 14.2454 161.035 13.6136L162.008 2.06788C162.008 0.91906 160.692 0 159.033 0C157.374 0 156.058 0.91906 156.058 2.06788L157.088 13.6136C157.145 14.3029 158.003 14.8198 159.033 14.8198ZM152.797 18.4386C153.312 17.5196 153.255 16.5431 152.74 16.0836L143.301 9.47781C142.329 8.90339 140.841 9.59269 140.04 11.0287C139.182 12.4648 139.354 14.1305 140.326 14.6475L150.795 19.53C151.424 19.7598 152.34 19.3003 152.797 18.4386ZM165.211 18.3812C165.726 19.3003 166.584 19.7598 167.271 19.4726L177.682 14.5901C178.655 14.0157 178.826 12.4073 177.968 10.9713C177.11 9.53525 175.68 8.84595 174.707 9.42037L165.268 16.0836C164.753 16.5431 164.696 17.5196 165.211 18.3812ZM159.033 29.1802C160.063 29.1802 160.921 29.7546 161.035 30.3864L162.008 41.9321C162.008 43.0809 160.692 44 159.033 44C157.374 44 156.058 43.0809 156.058 41.9321L157.088 30.3864C157.145 29.6971 158.003 29.1802 159.033 29.1802ZM165.211 25.6188C165.726 24.6997 166.584 24.2402 167.271 24.47L177.682 29.3525C178.655 29.9269 178.826 31.5352 177.968 32.9713C177.11 34.4073 175.68 35.0966 174.707 34.5222L165.268 27.9164C164.753 27.5144 164.696 26.4804 165.211 25.6188ZM152.797 25.6188C153.312 26.4804 153.255 27.5144 152.74 27.9739L143.301 34.5796C142.329 35.154 140.841 34.4648 140.04 33.0287C139.182 31.5927 139.354 29.9843 140.326 29.4099L150.795 24.5274C151.424 24.2402 152.34 24.6997 152.797 25.6188ZM179.913 33.5457H180.028C180.142 33.5457 180.256 33.4883 180.256 33.4308C180.256 33.3159 180.199 33.3159 180.085 33.3159H179.97V33.5457H179.913ZM179.913 34.0627H179.684V33.1436H180.028C180.199 33.1436 180.256 33.1436 180.371 33.201C180.428 33.2585 180.485 33.3159 180.485 33.3734C180.485 33.4883 180.428 33.5457 180.314 33.6031C180.428 33.6606 180.485 33.718 180.485 33.8329C180.485 34.0052 180.542 34.0052 180.542 34.0627H180.314C180.256 34.0052 180.256 33.9478 180.256 33.8329C180.256 33.718 180.199 33.718 180.085 33.718H179.97L179.913 34.0627ZM180.028 32.8564C179.627 32.8564 179.341 33.201 179.341 33.6031C179.341 34.0052 179.627 34.3499 180.028 34.3499C180.428 34.3499 180.714 34.0052 180.714 33.6031C180.771 33.201 180.428 32.8564 180.028 32.8564ZM180.028 32.6841C180.542 32.6841 180.943 33.0862 180.943 33.6031C180.943 34.1201 180.542 34.5222 180.028 34.5222C179.513 34.5222 179.055 34.1201 179.055 33.6031C179.112 33.0862 179.513 32.6841 180.028 32.6841Z" fill="white"/>
</g>
<defs>
<clipPath id="clip0_591_359">
<rect width="181" height="44" fill="white"/>
</clipPath>
</defs>
</svg>
